<svg width="424" height="85" viewBox="0 0 424 85" fill="none" xmlns="http://www.w3.org/2000/svg">
<g clip-path="url(#clip0_1_45)">
<path d="M94.4723 56.2401V28.7399C94.4723 28.6818 94.4833 28.6282 94.5054 28.5768C94.5275 28.5254 94.5562 28.483 94.5937 28.445C94.6313 28.407 94.6754 28.3758 94.724 28.3557C94.7726 28.3356 94.8256 28.3222 94.883 28.3222H99.8341C99.8915 28.3222 99.9445 28.3333 99.9931 28.3557C100.042 28.378 100.086 28.407 100.123 28.445C100.161 28.483 100.19 28.5277 100.212 28.5768C100.234 28.6259 100.245 28.6818 100.245 28.7399V56.2401C100.245 56.2981 100.234 56.3517 100.212 56.4031C100.19 56.4545 100.161 56.4969 100.123 56.5349C100.086 56.5729 100.042 56.6041 99.9931 56.6242C99.9445 56.6443 99.8915 56.6577 99.8341 56.6577H94.883C94.8256 56.6577 94.7726 56.6466 94.724 56.6242C94.6754 56.6019 94.6313 56.5729 94.5937 56.5349C94.5562 56.4969 94.5275 56.4523 94.5054 56.4031C94.4833 56.354 94.4723 56.2981 94.4723 56.2401ZM115.01 28.3244C115.067 28.3244 115.12 28.3356 115.169 28.3579C115.217 28.3802 115.262 28.4093 115.299 28.4473C115.337 28.4852 115.365 28.5299 115.387 28.579C115.409 28.6282 115.421 28.684 115.421 28.7421V43.3209C115.421 44.6432 115.646 45.894 116.085 47.0264C116.525 48.1589 117.176 49.1729 118.029 50.0217C118.881 50.8705 119.934 51.5539 121.175 52.0252C122.417 52.4965 123.845 52.7556 125.449 52.7556C127.052 52.7556 128.452 52.4965 129.689 52.0252C130.925 51.5539 131.981 50.8705 132.84 50.0217C133.697 49.1729 134.357 48.1589 134.803 47.0264C135.249 45.894 135.479 44.6432 135.479 43.3209V28.7421C135.479 28.684 135.49 28.6304 135.512 28.579C135.534 28.5277 135.563 28.4852 135.6 28.4473C135.638 28.4093 135.682 28.378 135.731 28.3579C135.779 28.3378 135.834 28.3244 135.89 28.3244H140.9C140.958 28.3244 141.011 28.3356 141.059 28.3579C141.108 28.3802 141.152 28.4093 141.19 28.4473C141.227 28.4852 141.256 28.5299 141.278 28.579C141.3 28.6282 141.311 28.684 141.311 28.7421V43.7542C141.311 45.7667 140.955 47.6317 140.264 49.298C139.573 50.9643 138.546 52.4295 137.199 53.6424C135.854 54.8552 134.189 55.8179 132.224 56.4768C130.261 57.1357 127.995 57.4909 125.449 57.4909C122.902 57.4909 120.639 57.1335 118.673 56.4701C116.71 55.8067 115.045 54.8396 113.698 53.6223C112.353 52.4027 111.324 50.933 110.633 49.2645C109.942 47.596 109.586 45.7287 109.586 43.714V28.7399C109.586 28.6818 109.597 28.6282 109.619 28.5768C109.641 28.5254 109.67 28.483 109.708 28.445C109.745 28.407 109.789 28.3758 109.838 28.3557C109.886 28.3356 109.942 28.3222 109.997 28.3222H115.008L115.01 28.3244ZM150.674 28.7421C150.674 28.684 150.685 28.6304 150.707 28.579C150.73 28.5277 150.758 28.4852 150.796 28.4473C150.833 28.4093 150.878 28.378 150.926 28.3579C150.975 28.3378 151.03 28.3244 151.085 28.3244H167.261C169.772 28.3244 172.078 28.6237 174.12 29.2089C176.165 29.7964 177.947 30.6719 179.418 31.8245C180.889 32.977 182.044 34.411 182.832 36.113C183.62 37.815 184.042 39.785 184.042 42.0164C184.042 44.2478 183.603 46.2759 182.788 48.0673C181.973 49.8586 180.789 51.4088 179.301 52.6819C177.813 53.9551 176.017 54.949 173.988 55.6236C171.958 56.2981 169.693 56.6555 167.259 56.6555H151.083C151.025 56.6555 150.972 56.6443 150.924 56.622C150.875 56.5997 150.831 56.5706 150.794 56.5327C150.756 56.4947 150.727 56.45 150.705 56.4009C150.683 56.3517 150.672 56.2959 150.672 56.2378V28.7376L150.674 28.7421ZM166.833 52.3558C168.566 52.3558 170.128 52.1213 171.497 51.6679C172.866 51.2144 174.041 50.5421 174.999 49.6688C175.958 48.7954 176.7 47.7144 177.203 46.4479C177.707 45.1815 177.969 43.7251 177.969 42.0968C177.969 40.4685 177.673 39.1217 177.121 37.9356C176.572 36.7496 175.765 35.7646 174.752 34.9783C173.738 34.1921 172.513 33.6047 171.119 33.2138C169.726 32.8229 168.167 32.6286 166.482 32.6286H156.476V52.3558H166.833ZM310.092 28.3266H311.362H312.631H313.901H315.171C315.226 28.3266 315.279 28.3311 315.332 28.3423C315.385 28.3534 315.436 28.3691 315.484 28.3892C315.533 28.4093 315.582 28.4339 315.626 28.4651C315.67 28.4964 315.712 28.5299 315.752 28.5679C316.339 29.162 317.854 30.6943 319.797 32.6598C321.741 34.6254 324.11 37.0221 326.409 39.3473C328.706 41.6702 330.93 43.9195 332.579 45.588C334.229 47.2565 335.304 48.3442 335.304 48.3442H335.717V43.4437V38.5432V33.6426V28.7421C335.717 28.684 335.728 28.6304 335.75 28.579C335.772 28.5277 335.801 28.4852 335.839 28.4473C335.876 28.4093 335.92 28.378 335.969 28.3579C336.018 28.3378 336.073 28.3244 336.13 28.3244H340.582C340.64 28.3244 340.693 28.3356 340.743 28.3579C340.794 28.3802 340.836 28.4093 340.874 28.4473C340.911 28.4852 340.942 28.5299 340.962 28.579C340.982 28.6282 340.995 28.684 340.995 28.7421V56.2401C340.995 56.2981 340.984 56.3517 340.962 56.4031C340.94 56.4545 340.911 56.4969 340.874 56.5349C340.836 56.5729 340.792 56.6041 340.743 56.6242C340.695 56.6443 340.64 56.6577 340.582 56.6577H339.33H338.078H336.826H335.574L330.523 51.5495L325.473 46.4412L320.422 41.3329L315.372 36.2247H314.963C314.963 36.4905 314.963 37.6989 314.963 39.4076C314.963 41.1163 314.963 43.3209 314.963 45.5813C314.963 47.8417 314.963 50.1579 314.963 52.0833C314.963 54.0087 314.963 55.5432 314.963 56.2445C314.963 56.3026 314.952 56.3562 314.93 56.4053C314.908 56.4545 314.879 56.4991 314.842 56.5371C314.804 56.5751 314.76 56.6041 314.712 56.6265C314.663 56.6488 314.608 56.6577 314.55 56.6577H313.437H312.324H310.098C310.041 56.6577 309.988 56.6466 309.937 56.6242C309.886 56.6019 309.844 56.5729 309.807 56.5349C309.769 56.4969 309.738 56.4523 309.719 56.4031C309.699 56.354 309.685 56.2981 309.685 56.2401V28.7421C309.685 28.684 309.696 28.6304 309.719 28.579C309.741 28.5277 309.769 28.4852 309.807 28.4473C309.844 28.4093 309.889 28.378 309.937 28.3579C309.986 28.3378 310.041 28.3244 310.098 28.3244L310.092 28.3266ZM349.025 42.4922C349.025 40.2429 349.482 38.1791 350.339 36.352C351.195 34.5249 352.454 32.9301 354.055 31.6167C355.656 30.3034 357.602 29.2737 359.834 28.5701C362.067 27.8665 364.587 27.4913 367.338 27.4913C370.09 27.4913 372.612 27.8665 374.847 28.5701C377.084 29.2737 379.034 30.3034 380.639 31.6167C382.245 32.9301 383.508 34.5227 384.369 36.352C385.23 38.1791 385.69 40.2429 385.69 42.4922C385.69 44.7414 385.23 46.8053 384.369 48.6324C383.508 50.4595 382.247 52.0543 380.639 53.3676C379.034 54.681 377.084 55.7107 374.847 56.4143C372.61 57.1179 370.088 57.4931 367.338 57.4931C364.589 57.4931 362.067 57.1179 359.834 56.4143C357.602 55.7107 355.656 54.681 354.055 53.3676C352.454 52.0543 351.195 50.4617 350.339 48.6324C349.482 46.8053 349.025 44.7414 349.025 42.4922ZM379.584 42.4922C379.584 40.9331 379.274 39.5014 378.698 38.2327C378.122 36.964 377.276 35.8561 376.2 34.9426C375.125 34.029 373.824 33.3121 372.334 32.8229C370.843 32.3337 369.165 32.0724 367.336 32.0724C365.508 32.0724 363.847 32.3337 362.361 32.8229C360.875 33.3121 359.576 34.0313 358.505 34.9426C357.434 35.8561 356.588 36.964 356.012 38.2327C355.435 39.5014 355.126 40.9331 355.126 42.4922C355.126 44.0512 355.435 45.4674 356.012 46.736C356.588 48.0025 357.432 49.1126 358.505 50.0284C359.576 50.9442 360.875 51.6656 362.361 52.157C363.847 52.6506 365.519 52.9142 367.336 52.9142C369.154 52.9142 370.843 52.6529 372.334 52.1637C373.824 51.6746 375.127 50.9553 376.2 50.044C377.274 49.1327 378.119 48.0226 378.698 46.7539C379.277 45.4852 379.584 44.0535 379.584 42.4944V42.4922ZM229.803 28.7421C229.803 28.684 229.814 28.6304 229.837 28.579C229.859 28.5277 229.887 28.4852 229.925 28.4473C229.962 28.4093 230.007 28.378 230.055 28.3579C230.104 28.3378 230.159 28.3244 230.216 28.3244H246.39C248.901 28.3244 251.207 28.6237 253.249 29.2089C255.294 29.7964 257.076 30.6719 258.547 31.8245C260.018 32.9792 261.173 34.411 261.961 36.113C262.75 37.815 263.171 39.785 263.171 42.0164C263.171 44.2478 262.732 46.2759 261.917 48.0673C261.104 49.8586 259.918 51.4088 258.43 52.6819C256.942 53.9551 255.146 54.949 253.117 55.6236C251.087 56.2981 248.822 56.6555 246.388 56.6555H230.214C230.157 56.6555 230.104 56.6443 230.053 56.622C230.002 56.5997 229.96 56.5706 229.923 56.5327C229.885 56.4947 229.854 56.45 229.834 56.4009C229.814 56.3517 229.801 56.2959 229.801 56.2378V28.7376L229.803 28.7421ZM245.962 52.3558C247.695 52.3558 249.257 52.1213 250.626 51.6679C251.995 51.2144 253.17 50.5421 254.128 49.6688C255.087 48.7954 255.829 47.7144 256.332 46.4479C256.836 45.1815 257.098 43.7251 257.098 42.0968C257.098 40.4685 256.802 39.1217 256.25 37.9356C255.701 36.7496 254.894 35.7646 253.881 34.9783C252.865 34.1921 251.642 33.6047 250.248 33.2138C248.855 32.8229 247.296 32.6286 245.611 32.6286H235.605V52.3558H245.962ZM213.908 50.7364H194.947L194.293 52.157L193.64 53.5776L192.986 54.9982L192.332 56.4187C192.315 56.4545 192.295 56.488 192.268 56.517C192.242 56.5461 192.213 56.5729 192.18 56.593C192.147 56.6131 192.112 56.6309 192.076 56.6421C192.041 56.6533 192.001 56.66 191.959 56.66H186.922C186.847 56.66 186.778 56.6399 186.719 56.6064C186.659 56.5729 186.611 56.5237 186.575 56.4679C186.54 56.412 186.518 56.345 186.511 56.278C186.505 56.211 186.518 56.1373 186.549 56.0703L189.718 49.1953L192.887 42.3202L196.056 35.4452L199.225 28.5701C199.242 28.5344 199.264 28.5009 199.289 28.4696C199.313 28.4383 199.344 28.4137 199.377 28.3936C199.41 28.3735 199.445 28.3557 199.483 28.3445C199.52 28.3333 199.56 28.3266 199.6 28.3266H209.259C209.299 28.3266 209.339 28.3333 209.376 28.3445C209.414 28.3557 209.449 28.3713 209.482 28.3936C209.515 28.416 209.544 28.4405 209.571 28.4696C209.597 28.4986 209.617 28.5321 209.635 28.5701L212.804 35.4452L215.973 42.3202L219.142 49.1953L222.311 56.0703C222.341 56.1395 222.352 56.211 222.348 56.278C222.344 56.345 222.319 56.412 222.284 56.4679C222.249 56.5237 222.2 56.5729 222.14 56.6064C222.081 56.6399 222.012 56.66 221.937 56.66H216.902C216.863 56.66 216.823 56.6533 216.787 56.6421C216.752 56.6309 216.715 56.6153 216.684 56.593C216.653 56.5706 216.622 56.5461 216.595 56.517C216.569 56.488 216.549 56.4545 216.531 56.4187L215.875 54.9982L215.22 53.5776L214.564 52.157L213.908 50.7364ZM211.931 46.439L210.339 42.9858L208.747 39.5327L207.155 36.0795L205.562 32.6263H203.299C203.06 33.1468 202.541 34.2703 201.899 35.6618C201.256 37.0533 200.488 38.7152 199.75 40.3122C199.013 41.9092 198.304 43.4392 197.78 44.5717C197.257 45.7041 196.919 46.4367 196.919 46.4367H211.929L211.931 46.439ZM294.022 50.7364H275.061L274.407 52.157L273.754 53.5776L273.1 54.9982L272.446 56.4187C272.429 56.4545 272.409 56.488 272.382 56.517C272.356 56.5461 272.327 56.5729 272.294 56.593C272.261 56.6131 272.225 56.6309 272.19 56.6421C272.155 56.6533 272.115 56.66 272.073 56.66H267.036C266.961 56.66 266.892 56.6399 266.833 56.6064C266.773 56.5729 266.725 56.5237 266.689 56.4679C266.654 56.412 266.632 56.345 266.625 56.278C266.618 56.211 266.632 56.1373 266.663 56.0703L269.832 49.1953L273.001 42.3202L276.17 35.4452L279.339 28.5701C279.356 28.5344 279.378 28.5009 279.403 28.4696C279.427 28.4383 279.458 28.4137 279.491 28.3936C279.524 28.3735 279.559 28.3557 279.597 28.3445C279.634 28.3333 279.674 28.3266 279.714 28.3266H289.373C289.413 28.3266 289.453 28.3333 289.49 28.3445C289.528 28.3557 289.563 28.3713 289.596 28.3936C289.629 28.416 289.658 28.4405 289.685 28.4696C289.711 28.4986 289.731 28.5321 289.749 28.5701L292.918 35.4452L296.087 42.3202L299.255 49.1953L302.424 56.0703C302.455 56.1395 302.466 56.211 302.462 56.278C302.458 56.345 302.433 56.412 302.398 56.4679C302.363 56.5237 302.314 56.5729 302.254 56.6064C302.195 56.6399 302.126 56.66 302.051 56.66H297.016C296.976 56.66 296.937 56.6533 296.901 56.6421C296.866 56.6309 296.828 56.6153 296.798 56.593C296.767 56.5706 296.736 56.5461 296.709 56.517C296.683 56.488 296.663 56.4545 296.645 56.4187L295.989 54.9982L295.333 53.5776L294.678 52.157L294.022 50.7364ZM292.045 46.439L290.453 42.9858L288.861 39.5327L287.269 36.0795L285.676 32.6263H283.413C283.174 33.1468 282.655 34.2703 282.013 35.6618C281.37 37.0533 280.602 38.7152 279.864 40.3122C279.127 41.9092 278.418 43.4392 277.894 44.5717C277.371 45.7041 277.033 46.4367 277.033 46.4367H292.043L292.045 46.439ZM392.264 49.9167L393.169 49.3851L394.075 48.8535L394.98 48.3219L395.885 47.7903C395.934 47.7613 395.985 47.7456 396.036 47.7389C396.086 47.7322 396.139 47.7345 396.188 47.7479C396.237 47.7613 396.285 47.7836 396.327 47.8126C396.369 47.8417 396.407 47.8819 396.438 47.9288C396.968 48.7463 397.628 49.4812 398.425 50.1222C399.222 50.7632 400.156 51.3105 401.234 51.7527C402.31 52.195 403.529 52.5323 404.896 52.7556C406.262 52.979 407.775 53.0862 409.442 53.0683C410.92 53.0527 412.198 52.9633 413.285 52.7936C414.371 52.6238 415.266 52.3714 415.977 52.0297C416.686 51.688 417.211 51.2569 417.56 50.7297C417.907 50.2026 418.079 49.5772 418.079 48.8468C418.079 48.2549 417.978 47.7434 417.757 47.3034C417.536 46.8634 417.198 46.4948 416.728 46.1866C416.255 45.8783 415.65 45.6304 414.895 45.4316C414.14 45.2328 413.236 45.0854 412.165 44.976L409.988 44.7593L407.81 44.5426L405.633 44.326L403.456 44.1093C401.822 43.9418 400.404 43.6604 399.198 43.2561C397.99 42.8518 396.994 42.3269 396.201 41.6702C395.409 41.0135 394.821 40.2273 394.43 39.3004C394.039 38.3734 393.847 37.308 393.847 36.0951C393.847 34.7326 394.165 33.5153 394.786 32.4521C395.406 31.3889 396.327 30.4843 397.533 29.7494C398.739 29.0146 400.229 28.4495 401.987 28.0675C403.745 27.6856 405.77 27.489 408.045 27.489C409.961 27.489 411.673 27.556 413.219 27.7213C414.762 27.8866 416.14 28.1546 417.392 28.5545C418.642 28.9543 419.766 29.4881 420.804 30.1872C421.842 30.8864 422.792 31.753 423.693 32.8207C423.735 32.8698 423.761 32.9256 423.777 32.9837C423.792 33.0418 423.794 33.1021 423.783 33.1602C423.772 33.2182 423.75 33.2741 423.717 33.3255C423.684 33.3768 423.638 33.4193 423.582 33.4505L422.717 33.9553L421.851 34.4601L420.985 34.9649L420.12 35.4697C420.076 35.4943 420.029 35.5122 419.981 35.5189C419.932 35.5256 419.886 35.5256 419.839 35.5166C419.793 35.5077 419.747 35.4898 419.707 35.4653C419.667 35.4407 419.627 35.4072 419.594 35.3692C419.016 34.6612 418.353 34.0893 417.596 33.6292C416.838 33.1691 415.986 32.8207 415.023 32.5593C414.06 32.3002 412.987 32.1282 411.79 32.021C410.593 31.9138 409.27 31.8736 407.81 31.8736C406.488 31.8736 405.32 31.9585 404.308 32.1238C403.299 32.2891 402.446 32.537 401.762 32.8653C401.077 33.1937 400.556 33.6024 400.207 34.0893C399.858 34.5763 399.682 35.1414 399.682 35.7824C399.682 36.3654 399.772 36.8568 399.975 37.2722C400.178 37.6877 400.497 38.0294 400.951 38.3131C401.406 38.5968 401.998 38.8224 402.751 39.0078C403.504 39.1931 404.419 39.3361 405.516 39.4545L407.548 39.6622L409.579 39.8699L411.611 40.0777L413.643 40.2854C415.46 40.473 417.017 40.7567 418.329 41.1543C419.641 41.5518 420.705 42.0633 421.544 42.7089C422.383 43.3521 422.995 44.1294 423.397 45.0541C423.799 45.9789 423.991 47.0555 423.991 48.2996C423.991 49.7894 423.669 51.1095 423.033 52.2508C422.397 53.3922 421.451 54.3549 420.204 55.1322C418.956 55.9095 417.41 56.4992 415.573 56.8967C413.738 57.2943 411.611 57.4953 409.211 57.4953C407.141 57.4953 405.304 57.4417 403.648 57.2653C401.989 57.0888 400.512 56.7895 399.158 56.3004C397.805 55.8112 396.579 55.13 395.426 54.1896C394.273 53.2493 393.191 52.0498 392.131 50.522C392.096 50.4729 392.074 50.417 392.065 50.3612C392.056 50.3054 392.056 50.2473 392.067 50.1914C392.078 50.1356 392.103 50.0842 392.136 50.0373C392.169 49.9904 392.211 49.9502 392.264 49.9189V49.9167ZM86.1999 32.2109C86.1999 32.269 86.1888 32.3226 86.1667 32.3739C86.1447 32.4253 86.1159 32.4677 86.0784 32.5057C86.0409 32.5437 85.9967 32.575 85.9481 32.5951C85.8995 32.6152 85.8443 32.6286 85.7869 32.6286H81.6904H77.594H73.4975H69.4011C68.1379 32.6286 66.8968 32.8854 65.7463 33.3612C64.5957 33.837 63.5335 34.5316 62.6303 35.4049C61.7271 36.2783 60.9807 37.3325 60.4617 38.5253C59.9428 39.7203 59.6491 41.0537 59.6491 42.49C59.6491 43.9262 59.9273 45.1949 60.4286 46.3809C60.9299 47.5669 61.6542 48.6257 62.542 49.5102C63.4297 50.3947 64.4853 51.105 65.6469 51.5942C66.8085 52.0833 68.0783 52.3513 69.4011 52.3513H73.4975H77.594H81.6904H85.7869C85.8443 52.3513 85.8973 52.3625 85.9481 52.3848C85.9989 52.4072 86.0409 52.4362 86.0784 52.4742C86.1159 52.5122 86.1469 52.5568 86.1667 52.606C86.1866 52.6551 86.1999 52.7109 86.1999 52.769V53.6357V54.5023V55.3689V56.2356C86.1999 56.2937 86.1888 56.3473 86.1667 56.3986C86.1447 56.45 86.1159 56.4925 86.0784 56.5304C86.0409 56.5684 85.9967 56.5997 85.9481 56.6198C85.8995 56.6399 85.8443 56.6533 85.7869 56.6533H81.8737H77.9606H74.0474H70.1342H69.6197H69.1051H68.5906H68.0761C66.3249 56.6533 64.5737 56.3004 62.9307 55.637C61.2899 54.9736 59.7573 53.9997 58.4455 52.7579C57.1316 51.516 56.0384 50.0083 55.2721 48.275C54.5059 46.5417 54.0686 44.5851 54.0686 42.4475C54.0686 40.6271 54.4286 38.8335 55.0977 37.1673C55.7668 35.501 56.7429 33.962 57.9774 32.6531C59.2118 31.342 60.7047 30.2587 62.4051 29.5037C64.1055 28.7488 66.0113 28.3199 68.0739 28.3199H68.5884H69.1029H69.6175H70.132H74.0452H77.9584H81.8715H85.7847C85.8421 28.3199 85.8951 28.3311 85.9459 28.3534C85.9967 28.3758 86.0387 28.4048 86.0762 28.4428C86.1137 28.4808 86.1447 28.5254 86.1645 28.5746C86.1844 28.6237 86.1976 28.6795 86.1976 28.7376V32.2064L86.1999 32.2109ZM21.9396 43.5062L11.1254 43.6291L0.311142 43.7519C0.225017 43.7519 0.147725 43.7184 0.0903086 43.6604C0.0328919 43.6023 -0.00244141 43.5241 -0.00244141 43.437V41.563C-0.00244141 41.4759 0.0328919 41.3977 0.0903086 41.3396C0.147725 41.2816 0.225017 41.2481 0.311142 41.2481L11.1254 41.3709L21.9396 41.4938C22.0235 41.4938 22.1008 41.5295 22.156 41.5876C22.2112 41.6457 22.2443 41.7216 22.2443 41.8087V42.5011V43.1935C22.2443 43.2784 22.2112 43.3566 22.156 43.4147C22.1008 43.4727 22.0235 43.5062 21.9396 43.5085V43.5062ZM22.6153 46.8879C22.6595 46.8232 22.6794 46.7405 22.6661 46.6556L22.5469 45.9744L22.4276 45.2931C22.4121 45.2083 22.3658 45.1368 22.3017 45.0921C22.2377 45.0474 22.156 45.0251 22.0721 45.0385L11.4014 46.8187L0.730725 48.5989C0.646809 48.6123 0.573934 48.6614 0.529767 48.7262C0.4856 48.791 0.463517 48.8758 0.476767 48.9607L0.637975 49.8832L0.799184 50.8057C0.814642 50.8906 0.863225 50.962 0.927267 51.0089C0.991309 51.0558 1.07523 51.0759 1.15914 51.0603L11.7879 49.0411L22.4166 47.0219C22.5005 47.0063 22.5689 46.9572 22.6131 46.8924L22.6153 46.8879ZM23.6643 50.2294C23.6974 50.1579 23.7018 50.0731 23.6731 49.9904L23.439 49.3382L23.2049 48.686C23.1762 48.6056 23.1166 48.543 23.0459 48.5095C22.9753 48.476 22.8914 48.4693 22.8119 48.4961L12.6094 52.1235L2.40685 55.7509C2.32514 55.7799 2.26331 55.8402 2.23018 55.9117C2.19706 55.9832 2.19043 56.0703 2.21914 56.1529L2.53493 57.033L2.85073 57.913C2.87943 57.9957 2.93906 58.056 3.01193 58.0917C3.08481 58.1274 3.16873 58.1319 3.25043 58.1007L13.3712 54.2454L23.492 50.3902C23.5715 50.359 23.6311 50.3009 23.6643 50.2272V50.2294ZM25.2697 53.3364C25.2896 53.2604 25.2808 53.1755 25.2388 53.0996L24.8965 52.4988L24.5542 51.8979C24.5123 51.8242 24.4438 51.7728 24.3687 51.7527C24.2936 51.7326 24.2097 51.7393 24.1346 51.7818L14.7095 57.1447L5.28431 62.5076C5.20923 62.55 5.15843 62.6192 5.13856 62.6974C5.11868 62.7756 5.12531 62.8605 5.16948 62.9364L5.63323 63.7472L6.09698 64.558C6.14114 64.634 6.2096 64.6831 6.28689 64.7054C6.36418 64.7278 6.4481 64.7166 6.52318 64.6719L15.8269 59.0968L25.1306 53.5218C25.2035 53.4771 25.2521 53.4078 25.2719 53.3319L25.2697 53.3364ZM27.3853 56.1127C27.3919 56.0346 27.3676 55.9519 27.3146 55.8849L26.8752 55.3533L26.4357 54.8217C26.3805 54.7569 26.3054 54.719 26.2281 54.71C26.1509 54.7011 26.0691 54.7257 26.0029 54.7793L17.6421 61.7169L9.28139 68.6545C9.21514 68.7103 9.1776 68.7862 9.17098 68.8667C9.16435 68.9471 9.18643 69.0297 9.24164 69.0967L9.83789 69.8137L10.4341 70.5307C10.4894 70.5977 10.5666 70.6357 10.6461 70.6424C10.7256 70.6491 10.8074 70.6245 10.8736 70.5687L19.0798 63.4457L27.2859 56.3227C27.35 56.2669 27.3853 56.1909 27.3919 56.1105L27.3853 56.1127ZM29.9448 58.4759C29.9381 58.3977 29.9006 58.3195 29.8344 58.2659L29.3088 57.8214L28.7832 57.377C28.7191 57.3211 28.6374 57.2988 28.5579 57.3055C28.4784 57.3122 28.4034 57.3479 28.3481 57.4127L21.3058 65.7128L14.2634 74.0129C14.2082 74.0799 14.1839 74.1625 14.1905 74.243C14.1971 74.3234 14.2347 74.4015 14.3009 74.4574L15.0098 75.0604L15.7187 75.6635C15.7849 75.7194 15.8666 75.7439 15.9461 75.735C16.0256 75.7261 16.1029 75.6903 16.1559 75.6233L23.015 67.1669L29.8741 58.7104C29.9271 58.6434 29.9492 58.563 29.9426 58.4826L29.9448 58.4759ZM32.8708 60.3544C32.8509 60.2784 32.8001 60.2092 32.7273 60.1667L32.1332 59.8205L31.5392 59.4743C31.4663 59.4319 31.3824 59.423 31.3051 59.4431C31.2278 59.4632 31.1616 59.5123 31.1174 59.586L25.6054 68.9962L20.0934 78.4064C20.0492 78.4823 20.0404 78.5672 20.0603 78.6454C20.0801 78.7236 20.1309 78.7928 20.206 78.8375L21.0076 79.3065L21.8093 79.7756C21.8844 79.8203 21.9683 79.827 22.0456 79.8069C22.1229 79.7868 22.1913 79.7354 22.2333 79.6595L27.5355 70.1264L32.8377 60.5934C32.8796 60.5196 32.8863 60.4348 32.8664 60.3566L32.8708 60.3544ZM36.0751 61.6901C36.042 61.6186 35.9801 61.5583 35.9006 61.5292L35.2558 61.2925L34.611 61.0557C34.5315 61.0267 34.4476 61.0312 34.3747 61.0647C34.3018 61.0982 34.2444 61.1585 34.2135 61.2389L30.4019 71.4755L26.5903 81.7121C26.5594 81.7925 26.566 81.8797 26.5991 81.9534C26.6323 82.0271 26.6941 82.0874 26.7758 82.1164L27.6459 82.4358L28.516 82.7552C28.5977 82.7843 28.6816 82.7776 28.7545 82.7441C28.8274 82.7106 28.8848 82.648 28.9135 82.5654L32.4998 72.2461L36.0861 61.9268C36.1149 61.8464 36.1082 61.7615 36.0729 61.6901H36.0751ZM39.4605 62.4428C39.4141 62.378 39.3456 62.3311 39.2617 62.3155L38.5882 62.1949L37.9146 62.0742C37.8307 62.0586 37.749 62.0787 37.685 62.1256C37.6209 62.1725 37.5724 62.2418 37.5569 62.3244L35.5606 73.0748L33.5642 83.8251C33.5488 83.91 33.5686 83.9949 33.615 84.0597C33.6614 84.1244 33.7321 84.1736 33.816 84.1892L34.728 84.3523L35.6401 84.5153C35.724 84.531 35.8079 84.5086 35.8719 84.4617C35.936 84.4148 35.9846 84.3433 35.9978 84.2585L37.7579 73.4657L39.5179 62.6729C39.5311 62.588 39.5113 62.5053 39.4649 62.4406L39.4605 62.4428ZM42.9231 62.5902C42.8679 62.5344 42.7906 62.5009 42.7045 62.5009H42.0199H41.3354C41.2514 62.5009 41.1741 62.5344 41.1167 62.5902C41.0593 62.646 41.0262 62.7242 41.024 62.8091L40.9025 73.7471L40.7811 84.6851C40.7811 84.7722 40.8142 84.8504 40.8716 84.9084C40.929 84.9665 41.0063 85.0022 41.0924 85.0022H42.0177H42.943C43.0291 85.0022 43.1064 84.9665 43.1639 84.9084C43.2213 84.8504 43.2544 84.7722 43.2544 84.6851L43.1329 73.7471L43.0115 62.8091C43.0115 62.7242 42.9761 62.646 42.9187 62.5902H42.9231ZM41.1167 22.4098C41.1719 22.4656 41.2492 22.4991 41.3354 22.4991H42.0199H42.7045C42.7884 22.4991 42.8657 22.4656 42.9231 22.4098C42.9806 22.354 43.0137 22.2758 43.0159 22.1909L43.1373 11.2529L43.2588 0.314939C43.2588 0.227828 43.2257 0.149652 43.1683 0.091578C43.1109 0.0335041 43.0314 0 42.9452 0H42.0199H41.0946C41.0085 0 40.9312 0.0357377 40.8738 0.0938116C40.8164 0.151885 40.7833 0.230062 40.7833 0.317173L40.9047 11.2552L41.0262 22.1931C41.0262 22.278 41.0615 22.3562 41.1189 22.412L41.1167 22.4098ZM37.6806 22.8744C37.7446 22.9191 37.8263 22.9392 37.9102 22.9258L38.5838 22.8052L39.2573 22.6845C39.3412 22.6689 39.4119 22.622 39.4561 22.5572C39.5002 22.4924 39.5223 22.4098 39.5091 22.3249L37.749 11.5321L35.989 0.739325C35.9757 0.654448 35.9271 0.580738 35.8631 0.536066C35.7991 0.491394 35.7151 0.469058 35.6312 0.48246L34.7192 0.645513L33.8071 0.808567C33.7232 0.824202 33.6526 0.873341 33.6062 0.938116C33.5598 1.00289 33.5399 1.08777 33.5554 1.17265L35.5517 11.923L37.5481 22.6734C37.5635 22.7582 37.6121 22.8275 37.6761 22.8722L37.6806 22.8744ZM34.3769 23.9354C34.4476 23.9689 34.5315 23.9733 34.6132 23.9443L35.258 23.7075L35.9029 23.4708C35.9824 23.4417 36.0442 23.3814 36.0773 23.3099C36.1104 23.2385 36.1171 23.1536 36.0906 23.0732L32.5042 12.7539L28.9179 2.43463C28.8892 2.35199 28.8296 2.28945 28.7589 2.25595C28.6882 2.22244 28.6021 2.21574 28.5204 2.24478L27.6503 2.56418L26.7802 2.88359C26.6985 2.91263 26.6389 2.97293 26.6036 3.04664C26.5682 3.12035 26.5638 3.20523 26.5947 3.28787L30.4063 13.5245L34.2179 23.7611C34.2488 23.8415 34.3062 23.9019 34.3791 23.9354H34.3769ZM31.3051 25.5592C31.3802 25.5793 31.4641 25.5704 31.5392 25.5279L32.1332 25.1817L32.7273 24.8355C32.8001 24.7931 32.8509 24.7238 32.8708 24.6479C32.8907 24.5719 32.8841 24.4871 32.8421 24.4111L27.5399 14.8781L22.2377 5.34503C22.1957 5.26908 22.1273 5.21771 22.05 5.19761C21.9727 5.17751 21.8888 5.18421 21.8137 5.22888L21.0121 5.69794L20.2104 6.167C20.1354 6.21167 20.0868 6.28091 20.0647 6.35909C20.0426 6.43726 20.0536 6.52214 20.0978 6.59808L25.6098 16.0083L31.1218 25.4185C31.166 25.4922 31.2344 25.5413 31.3095 25.5614L31.3051 25.5592ZM28.5601 27.699C28.6374 27.7057 28.7191 27.6811 28.7854 27.6275L29.311 27.183L29.8366 26.7385C29.9006 26.6827 29.9381 26.6068 29.947 26.5286C29.9558 26.4504 29.9315 26.3678 29.8785 26.3008L23.0194 17.8443L16.1604 9.38786C16.1051 9.32085 16.0301 9.28288 15.9506 9.27618C15.8711 9.26948 15.7894 9.29181 15.7231 9.34766L15.0142 9.95073L14.3054 10.5538C14.2391 10.6096 14.2016 10.6878 14.1949 10.7682C14.1883 10.8486 14.2126 10.9313 14.2678 10.9983L21.3102 19.2984L28.3526 27.5985C28.4078 27.6633 28.4829 27.699 28.5624 27.7057L28.5601 27.699ZM26.2237 30.2877C26.301 30.281 26.3783 30.2431 26.4313 30.1761L26.8708 29.6445L27.3102 29.1129C27.3654 29.0481 27.3875 28.9655 27.3809 28.885C27.3743 28.8046 27.3389 28.7287 27.2749 28.6728L19.0687 21.5499L10.8626 14.4269C10.7963 14.371 10.7146 14.3465 10.6351 14.3532C10.5556 14.3599 10.4783 14.3978 10.4231 14.4649L9.82685 15.1818L9.2306 15.8988C9.17539 15.9658 9.1511 16.0485 9.15993 16.1289C9.16877 16.2093 9.2041 16.2875 9.27035 16.3411L17.6311 23.2787L25.9919 30.2163C26.0581 30.2699 26.1376 30.2922 26.2171 30.2855L26.2237 30.2877ZM24.3665 33.2473C24.4416 33.2272 24.5101 33.1758 24.552 33.1021L24.8943 32.5013L25.2366 31.9004C25.2786 31.8267 25.2874 31.7418 25.2675 31.6636C25.2476 31.5855 25.1991 31.5185 25.1262 31.4738L15.8225 25.8987L6.51877 20.3236C6.44368 20.2789 6.35977 20.27 6.28248 20.2901C6.20518 20.3102 6.13673 20.3616 6.09256 20.4375L5.62881 21.2483L5.16506 22.0591C5.12089 22.1351 5.11427 22.2199 5.13414 22.2981C5.15402 22.3763 5.20481 22.4455 5.27989 22.488L14.7051 27.8509L24.1302 33.2138C24.2031 33.2562 24.287 33.2629 24.3643 33.2428L24.3665 33.2473ZM23.0459 36.4882C23.1166 36.4547 23.1762 36.3922 23.2049 36.3118L23.439 35.6596L23.6731 35.0074C23.7018 34.927 23.6974 34.8421 23.6643 34.7684C23.6311 34.6947 23.5715 34.6366 23.492 34.6053L13.3712 30.7501L3.25043 26.8949C3.17093 26.8636 3.08481 26.8703 3.01193 26.9038C2.93906 26.9373 2.87943 26.9999 2.85073 27.0825L2.53493 27.9626L2.21914 28.8426C2.19043 28.9252 2.19706 29.0101 2.23018 29.0838C2.26331 29.1575 2.32514 29.2156 2.40685 29.2446L12.6094 32.872L22.8119 36.4994C22.8914 36.5285 22.9753 36.5218 23.0459 36.486V36.4882ZM22.3017 39.9124C22.3658 39.8655 22.4121 39.7962 22.4276 39.7113L22.5469 39.0301L22.6661 38.3488C22.6816 38.264 22.6617 38.1813 22.6153 38.1165C22.5689 38.0518 22.5005 38.0026 22.4188 37.987L11.7901 35.9678L1.16135 33.9486C1.07743 33.933 0.993517 33.9531 0.929475 34C0.865434 34.0469 0.81685 34.1184 0.801392 34.2033L0.640184 35.1257L0.478975 36.0482C0.463517 36.1331 0.4856 36.218 0.531975 36.2828C0.57835 36.3475 0.649017 36.3967 0.732934 36.4101L11.4036 38.1903L22.0743 39.9704C22.1582 39.9838 22.2399 39.9637 22.3039 39.9168L22.3017 39.9124Z" fill="#FF5824"/>
</g>
<defs>
<clipPath id="clip0_1_45">
<rect width="424" height="85" fill="white"/>
</clipPath>
</defs>
</svg>
