<?xml version="1.0" encoding="UTF-8" standalone="no"?>
<svg
   id="Layer_1"
   data-name="Layer 1"
   viewBox="0 0 107.58 113.94999"
   version="1.1"
   sodipodi:docname="Nuevo_logo_PACMA.svg"
   width="107.58"
   height="113.95"
   inkscape:version="1.2 (dc2aedaf03, 2022-05-15)"
   xmlns:inkscape="http://www.inkscape.org/namespaces/inkscape"
   xmlns:sodipodi="http://sodipodi.sourceforge.net/DTD/sodipodi-0.dtd"
   xmlns="http://www.w3.org/2000/svg"
   xmlns:svg="http://www.w3.org/2000/svg">
  <sodipodi:namedview
     id="namedview21"
     pagecolor="#ffffff"
     bordercolor="#cccccc"
     borderopacity="1"
     inkscape:showpageshadow="0"
     inkscape:pageopacity="1"
     inkscape:pagecheckerboard="0"
     inkscape:deskcolor="#d1d1d1"
     showgrid="false"
     inkscape:zoom="23.210356"
     inkscape:cx="57.991356"
     inkscape:cy="16.372002"
     inkscape:window-width="1920"
     inkscape:window-height="1017"
     inkscape:window-x="-8"
     inkscape:window-y="-8"
     inkscape:window-maximized="1"
     inkscape:current-layer="Layer_1" />
  <defs
     id="defs4">
    <style
       id="style2">
      .cls-1 {
        fill: #22d65d;
      }
    </style>
  </defs>
  <path
     class="cls-1"
     d="M 55.89,0.12 C 54.87,0.04 53.82,0 52.76,0 H 52.7 c -0.67,0 -1.33,0.02 -1.99,0.06 -0.46,0.02 -0.91,0.06 -1.36,0.1 -0.19,0 -0.37,0.02 -0.57,0.04 -0.04,0 -0.09,0.01 -0.12,0.01 -21.09,2.05 -37.59,19.81 -37.59,41.45 0,23.01 18.67,41.66 41.69,41.66 0.42,0 0.84,-0.01 1.26,-0.02 C 76.47,82.64 94.45,64.26 94.45,41.67 94.45,19.08 77.45,1.73 55.9,0.14 Z m 14.66,31.03 c -0.14,0.02 -0.29,0.03 -0.43,0.03 h -0.04 c -1.03,-0.01 -1.97,-0.42 -2.66,-1.09 -0.15,-0.13 -0.3,-0.3 -0.42,-0.46 -0.5,-0.65 -0.79,-1.48 -0.79,-2.36 0,-0.13 0.06,-1.09 0.06,-1.09 0,0 0.03,-0.32 -0.06,-0.54 C 66.18,25.5 66.1,25.42 66,25.39 65.97,25.38 65.92,25.37 65.88,25.37 h -0.01 l -0.19,0.02 c -0.12,0.02 -0.94,0.11 -0.94,0.11 0,0 0.58,-0.65 0.81,-0.85 0.01,-0.06 0.03,-0.1 0.06,-0.15 0.39,-1 1.75,-1.27 2.54,-0.61 0.24,0.19 0.43,0.48 0.52,0.87 0.15,-0.15 7.89,-8.27 7.89,-8.27 -0.12,0.15 -0.21,0.35 -0.3,0.61 -0.58,1.72 -0.41,5.37 -0.33,5.88 0.06,1.78 -0.74,3.13 -1.93,4.34 -0.14,0.13 -0.48,0.45 -0.48,0.45 -0.14,0.13 -0.29,0.26 -0.44,0.4 -0.04,0.03 -0.1,0.08 -0.14,0.12 0,0 0,0.01 0.01,0.03 0.29,0.04 0.57,0.11 0.85,0.2 2.2,0.64 4,2.2 4.94,4.25 -0.22,0.02 -0.44,0.03 -0.67,0.03 -0.11,0 -1.93,-0.01 -2.92,-0.42 -0.54,-0.22 -1.08,-0.58 -1.49,-0.9 -0.02,-0.01 -0.03,-0.02 -0.06,-0.03 -0.41,-0.33 -0.68,-0.61 -0.68,-0.61 h -0.08 c 0,0 -2.12,0.3 -2.3,0.31 z M 50.87,24.57 c 1.68,-0.62 3.17,-1.7 4.27,-3.07 0.13,-0.15 0.25,-0.31 0.36,-0.46 0.04,-0.07 0.09,-0.12 0.13,-0.19 0.66,-0.98 1.14,-2.08 1.42,-3.27 0,-0.01 0.01,-0.02 0.01,-0.03 0.04,-0.19 0.08,-0.39 0.11,-0.57 0.14,-0.64 0.83,-0.7 1.02,0.2 0.01,0.04 0.01,0.03 0.01,0.04 0.03,0.14 0.09,1.08 0.09,1.32 0,3.19 -1.52,6.02 -3.87,7.8 -1.14,0.87 -2.5,1.49 -3.95,1.79 -0.54,-0.32 -1.33,-0.76 -2.09,-1.18 -1.03,-0.56 -1.99,-1.08 -2.1,-1.13 2.41,-0.41 3.69,-0.86 4.59,-1.25 z M 31.38,34.81 c -1.32,0.1 -3.31,-1.28 -3.82,-3.01 -0.19,-0.65 -0.04,-1.33 0.59,-1.52 l 6.77,-1.98 c -0.22,-0.47 -0.33,-1 -0.33,-1.55 0,-0.45 0.08,-0.88 0.22,-1.28 0.39,-1.12 1.28,-2 2.39,-2.39 0.07,-0.03 0.13,-0.06 0.2,-0.08 0.33,-0.12 1.08,-0.4 2,-0.84 0.14,-0.08 0.29,-0.14 0.43,-0.22 0.1,-0.04 0.2,-0.1 0.3,-0.15 1.38,-0.74 2.96,-1.82 4.11,-3.27 0.66,-0.91 1.25,-2.28 1.56,-3.39 0.04,-0.15 0.2,-0.81 0.69,-0.81 0.31,0 0.47,0.33 0.48,0.52 0.06,0.43 0.09,0.69 0.09,1.14 0,0.21 -0.01,0.41 -0.02,0.62 0,0.13 -0.01,0.26 -0.03,0.39 -0.02,0.22 -0.04,0.43 -0.08,0.65 -0.45,2.63 -1.95,4.9 -4.04,6.37 -0.35,0.24 -0.72,0.47 -1.09,0.66 -0.22,0.12 -0.44,0.22 -0.66,0.32 -0.03,-0.01 -0.86,0.23 -0.77,0.84 0,0.34 0.23,0.63 0.55,0.72 0.01,0.01 0.03,0.01 0.04,0.01 0.09,0.01 0.18,0.01 0.26,0.01 0.36,0.02 0.73,-0.02 1.09,-0.08 h 0.07 c 0.12,-0.02 0.24,-0.02 0.39,-0.01 h 0.01 c 0.78,0.04 1.76,0.44 2.88,1.09 0.32,0.18 0.65,0.37 0.99,0.59 0.26,0.18 16.71,9.09 16.71,9.09 1.06,0.69 1.76,1.9 1.76,3.27 0,1.63 -1,3.03 -2.42,3.61 C 57.15,46.92 46.37,49 46.37,49 c -2.4,0.65 -5.3,1.74 -7.49,4.17 -0.01,0.01 -0.02,0.02 -0.03,0.04 -2.44,2.39 -4.05,5.63 -4.36,9.24 -0.04,0.43 -0.07,0.86 -0.07,1.3 0,0.25 0.01,0.51 0.02,0.76 h 0.08 c 0.84,-7.34 7.08,-13.06 14.65,-13.06 0.57,0 1.13,0.03 1.68,0.1 -0.26,0.62 -0.42,1.29 -0.43,1.99 -0.03,2.38 1.51,4.4 3.65,5.11 0.43,0.12 0.85,0.24 1.27,0.37 3.14,1 5.98,2.66 8.38,4.8 0.04,0.03 0.08,0.08 0.12,0.11 l 0.06,0.06 c 2.9,2.64 5.13,6.01 6.38,9.82 0.01,0.01 0.02,0.03 0.02,0.06 -3.7,2.07 -7.97,3.56 -12.4,4.22 -0.59,0.1 -1.2,0.18 -1.79,0.23 -1.12,0.12 -2.26,0.18 -3.38,0.18 -0.72,0 -1.42,-0.02 -2.11,-0.08 C 47.88,78.27 45.21,77.77 42.66,76.99 41.2,76.55 39.76,76.01 38.39,75.37 37.98,75.18 37.58,75 37.18,74.8 34.03,73.24 31.13,71.22 28.56,68.83 24.12,64.71 20.67,59.52 18.63,53.72 v 0 c 1.2,-4.36 2.94,-7.76 4.98,-10.51 0.11,-0.18 0.23,-0.34 0.36,-0.52 1.97,-2.83 4.73,-5.67 7.39,-7.87 v 0 z"
     id="path6" />
  <g
     id="g18"
     transform="translate(-94.94,-22.81)">
    <path
       class="cls-1"
       d="m 94.95,118.7 h 10.16 c 4.8,0 7.73,2.08 7.73,6.96 0,4.88 -2.93,6.94 -7.71,6.94 h -3.91 v 3.55 h -6.28 v -17.46 z m 9.6,8.69 c 1.16,0 1.93,-0.58 1.93,-1.73 0,-1.15 -0.77,-1.75 -1.91,-1.75 h -3.35 v 3.47 h 3.33 z"
       id="path8" />
    <path
       class="cls-1"
       d="m 127.5,134.06 h -7.11 l -0.67,2.1 h -6.48 l 6.3,-17.46 h 8.81 l 6.32,17.46 h -6.51 l -0.67,-2.1 z m -1.48,-4.63 -1.54,-4.82 h -1.08 l -1.54,4.82 z"
       id="path10" />
    <path
       class="cls-1"
       d="m 135.4,127.43 c 0,-5.63 3.93,-9.31 9.89,-9.31 4.39,0 8.92,1.93 9.39,8.09 h -5.99 c -0.39,-1.81 -1.62,-2.66 -3.41,-2.66 -2.02,0 -3.66,1.48 -3.66,3.89 0,2.41 1.64,3.89 3.66,3.89 1.79,0 3.01,-0.85 3.41,-2.7 h 5.99 c -0.48,6.19 -4.95,8.13 -9.39,8.13 -5.96,0 -9.89,-3.68 -9.89,-9.31 z"
       id="path12" />
    <path
       class="cls-1"
       d="m 157.77,118.7 h 7.9 l 2.35,9.19 h 0.46 l 2.35,-9.19 h 7.9 v 17.46 h -5.99 v -6.82 h -0.48 l -1.7,6.82 h -4.61 l -1.7,-6.82 h -0.48 v 6.82 h -5.99 V 118.7 Z"
       id="path14" />
    <path
       class="cls-1"
       d="m 195.35,134.06 h -7.11 l -0.67,2.1 h -6.48 l 6.3,-17.46 h 8.81 l 6.32,17.46 h -6.51 l -0.67,-2.1 z m -1.48,-4.63 -1.54,-4.82 h -1.08 l -1.54,4.82 z"
       id="path16" />
  </g>
</svg>
